<svg width="141" height="48" viewBox="0 0 141 48" fill="none" xmlns="http://www.w3.org/2000/svg">
<path fill-rule="evenodd" clip-rule="evenodd" d="M66.5816 44.9186C71.4198 40.7075 74.0198 34.9402 74.0198 28.4692C74.0198 21.9982 71.4198 16.2309 66.5816 12.0197C61.7123 7.78145 54.2797 4.88043 44.3306 4.88043C34.3084 4.88043 24.1176 7.8325 16.5555 12.4932C8.83442 17.2518 4.88043 23.0687 4.88043 28.4692C4.88043 33.8696 8.83442 39.6865 16.5555 44.4452C24.1176 49.1058 34.3084 52.0579 44.3306 52.0579C54.2797 52.0579 61.7123 49.1569 66.5816 44.9186ZM44.3306 56.9383C66.1183 56.9383 78.9003 44.1922 78.9003 28.4692C78.9003 12.7461 66.1183 0 44.3306 0C22.5429 0 0 12.7461 0 28.4692C0 44.1922 22.5429 56.9383 44.3306 56.9383Z" transform="translate(58.4826 55.1666) rotate(-137.836)" fill="white"/>
<path fill-rule="evenodd" clip-rule="evenodd" d="M42.5912 4.88043H0V0H43.6283L44.1015 0.210318C58.947 6.80831 66.019 11.7926 72.637 16.7561L69.7088 20.6605C63.3825 15.9157 56.7045 11.1913 42.5912 4.88043Z" transform="translate(119.365 75.1858) rotate(-137.836)" fill="white"/>
<path fill-rule="evenodd" clip-rule="evenodd" d="M70.3348 5.56209C64.3731 9.71601 57.3056 14.6403 44.1015 20.5088L43.6283 20.7191H0V15.8387H42.5909C55.0579 10.2565 61.7113 5.62147 67.5493 1.55449C68.3065 1.02705 69.0499 0.50916 69.7905 0L72.5554 4.02168C71.8261 4.52304 71.0893 5.0364 70.3348 5.56209Z" transform="translate(108.733 86.9258) rotate(-137.836)" fill="white"/>
<path fill-rule="evenodd" clip-rule="evenodd" d="M37.0666 1.26098H0V0H37.0666V1.26098Z" transform="translate(54.063 37.2918) rotate(-47.8356)" fill="white"/>
<path fill-rule="evenodd" clip-rule="evenodd" d="M68.9491 1.26098H0V0H68.9491V1.26098Z" transform="translate(65.657 37.9525) rotate(-137.836)" fill="white"/>
<path fill-rule="evenodd" clip-rule="evenodd" d="M49.2494 1.26098H0V0H49.2494V1.26098Z" transform="translate(52.0922 38.2573) rotate(-137.836)" fill="white"/>
<path fill-rule="evenodd" clip-rule="evenodd" d="M68.9491 1.26098H0V0H68.9491V1.26098Z" transform="translate(78.1847 24.1191) rotate(-137.836)" fill="white"/>
<path fill-rule="evenodd" clip-rule="evenodd" d="M56.5072 1.26098H0V0H56.5072V1.26098Z" transform="translate(77.2929 10.2195) rotate(-137.836)" fill="white"/>
<path fill-rule="evenodd" clip-rule="evenodd" d="M74.6517 1.26098H0V0H74.6517V1.26098Z" transform="translate(74.0343 32.9498) rotate(-137.836)" fill="white"/>
<path fill-rule="evenodd" clip-rule="evenodd" d="M44.8429 1.26098H0V0H44.8429V1.26098Z" transform="translate(44.5364 33.9099) rotate(-47.8356)" fill="white"/>
<path fill-rule="evenodd" clip-rule="evenodd" d="M51.0638 1.26098H0V0H51.0638V1.26098Z" transform="translate(35.5319 29.9516) rotate(-47.8356)" fill="white"/>
<path fill-rule="evenodd" clip-rule="evenodd" d="M51.0638 1.26098H0V0H51.0638V1.26098Z" transform="translate(28.6151 23.6879) rotate(-47.8356)" fill="white"/>
<path fill-rule="evenodd" clip-rule="evenodd" d="M51.0638 1.26098H0V0H51.0638V1.26098Z" transform="translate(21.6984 17.4239) rotate(-47.8356)" fill="white"/>
<path fill-rule="evenodd" clip-rule="evenodd" d="M44.8429 1.26098H0V0H44.8429V1.26098Z" transform="translate(16.8697 8.8546) rotate(-47.8356)" fill="white"/>
</svg>
