<svg width="108" height="108" viewBox="0 0 108 108" fill="none" xmlns="http://www.w3.org/2000/svg">
<path d="M0 21.0229C0 9.41227 9.41227 0 21.0229 0H86.9771C98.5877 0 108 9.41227 108 21.0229V86.9771C108 98.5877 98.5877 108 86.9771 108H21.0229C9.41227 108 0 98.5877 0 86.9771V21.0229Z" transform="translate(0 108) rotate(-90)" fill="white"/>
<path d="M0 21.0229C0 9.41227 9.41227 0 21.0229 0H86.9771C98.5877 0 108 9.41227 108 21.0229V86.9771C108 98.5877 98.5877 108 86.9771 108H21.0229C9.41227 108 0 98.5877 0 86.9771V21.0229Z" transform="translate(0 108) rotate(-90)" fill="url(#paint0_linear)"/>
<mask id="mask0" mask-type="alpha" maskUnits="userSpaceOnUse" x="0" y="0" width="108" height="108">
<path d="M0 21.0229C0 9.41227 9.41227 0 21.0229 0H86.9771C98.5877 0 108 9.41227 108 21.0229V86.9771C108 98.5877 98.5877 108 86.9771 108H21.0229C9.41227 108 0 98.5877 0 86.9771V21.0229Z" transform="translate(0 108) rotate(-90)" fill="white"/>
<path d="M0 21.0229C0 9.41227 9.41227 0 21.0229 0H86.9771C98.5877 0 108 9.41227 108 21.0229V86.9771C108 98.5877 98.5877 108 86.9771 108H21.0229C9.41227 108 0 98.5877 0 86.9771V21.0229Z" transform="translate(0 108) rotate(-90)" fill="url(#paint1_linear)"/>
</mask>
<g mask="url(#mask0)">
<g filter="url(#filter0_d)">
<path fill-rule="evenodd" clip-rule="evenodd" d="M130.593 88.1032C140.082 79.8434 145.182 68.5314 145.182 55.8393C145.182 43.1471 140.082 31.8351 130.593 23.5753C121.042 15.2625 106.464 9.57244 86.9497 9.57244C67.2924 9.57244 47.3042 15.3626 32.4719 24.504C17.3278 33.8376 9.57245 45.2469 9.57245 55.8393C9.57245 66.4316 17.3278 77.8409 32.4719 87.1745C47.3042 96.3159 67.2924 102.106 86.9497 102.106C106.464 102.106 121.042 96.416 130.593 88.1032ZM86.9497 111.679C129.684 111.679 154.755 86.6784 154.755 55.8393C154.755 25.0001 129.684 0 86.9497 0C44.2154 0 0 25.0001 0 55.8393C0 86.6784 44.2154 111.679 86.9497 111.679Z" transform="translate(17.7469 91.5602) rotate(-129.334)" fill="white"/>
<path fill-rule="evenodd" clip-rule="evenodd" d="M83.5381 9.57245H0V0H85.5723L86.5005 0.412517C115.618 13.3538 129.489 23.1299 142.47 32.8654L136.726 40.5234C124.318 31.217 111.22 21.9505 83.5381 9.57245Z" transform="translate(130.044 148.048) rotate(-129.334)" fill="white"/>
<path fill-rule="evenodd" clip-rule="evenodd" d="M137.954 10.9095C126.261 19.0569 112.399 28.7155 86.5005 40.2259L85.5723 40.6384H0V31.066H83.5375C107.99 20.117 121.04 11.0259 132.491 3.04896C133.976 2.01444 135.434 0.998663 136.887 0L142.31 7.8881C140.879 8.87147 139.434 9.87836 137.954 10.9095Z" transform="translate(106.015 167.739) rotate(-129.334)" fill="white"/>
<path fill-rule="evenodd" clip-rule="evenodd" d="M72.7023 2.47328H0V0H72.7023V2.47328Z" transform="translate(14.3568 55.6045) rotate(-39.3341)" fill="white"/>
<path fill-rule="evenodd" clip-rule="evenodd" d="M135.236 2.47328H0V0H135.236V2.47328Z" transform="translate(36.6556 60.248) rotate(-129.334)" fill="white"/>
<path fill-rule="evenodd" clip-rule="evenodd" d="M96.5975 2.47328H0V0H96.5975V2.47328Z" transform="translate(10.2537 56.906) rotate(-129.334)" fill="white"/>
<path fill-rule="evenodd" clip-rule="evenodd" d="M135.236 2.47328H0V0H135.236V2.47328Z" transform="translate(64.9685 37.046) rotate(-129.334)" fill="white"/>
<path fill-rule="evenodd" clip-rule="evenodd" d="M110.833 2.47328H0V0H110.833V2.47328Z" transform="translate(67.2689 9.82413) rotate(-129.334)" fill="white"/>
<path fill-rule="evenodd" clip-rule="evenodd" d="M146.421 2.47328H0V0H146.421V2.47328Z" transform="translate(54.3569 52.9726) rotate(-129.334)" fill="white"/>
<path fill-rule="evenodd" clip-rule="evenodd" d="M87.9545 2.47328H0V0H87.9545V2.47328Z" transform="translate(-3.14276 46.2818) rotate(-39.3341)" fill="white"/>
<path fill-rule="evenodd" clip-rule="evenodd" d="M100.156 2.47328H0V0H100.156V2.47328Z" transform="translate(-19.4626 35.9924) rotate(-39.3341)" fill="white"/>
<path fill-rule="evenodd" clip-rule="evenodd" d="M100.156 2.47328H0V0H100.156V2.47328Z" transform="translate(-31.0636 21.8359) rotate(-39.3341)" fill="white"/>
<path fill-rule="evenodd" clip-rule="evenodd" d="M100.156 2.47328H0V0H100.156V2.47328Z" transform="translate(-42.6646 7.6795) rotate(-39.3341)" fill="white"/>
</g>
</g>
<defs>
<filter id="filter0_d" x="-56.3863" y="-77.4687" width="198.834" height="230.517" filterUnits="userSpaceOnUse" color-interpolation-filters="sRGB">
<feFlood flood-opacity="0" result="BackgroundImageFix"/>
<feColorMatrix in="SourceAlpha" type="matrix" values="0 0 0 0 0 0 0 0 0 0 0 0 0 0 0 0 0 0 255 0"/>
<feOffset dx="5" dy="5"/>
<feColorMatrix type="matrix" values="0 0 0 0 0 0 0 0 0 0 0 0 0 0 0 0 0 0 0.05 0"/>
<feBlend mode="normal" in2="BackgroundImageFix" result="effect1_dropShadow"/>
<feBlend mode="normal" in="SourceGraphic" in2="effect1_dropShadow" result="shape"/>
</filter>
<linearGradient id="paint0_linear" x2="1" gradientUnits="userSpaceOnUse" gradientTransform="translate(147.779 54.1031) scale(132.477) rotate(135.063)">
<stop stop-color="#FFAF69"/>
<stop offset="1" stop-color="#E89348"/>
</linearGradient>
<linearGradient id="paint1_linear" x2="1" gradientUnits="userSpaceOnUse" gradientTransform="translate(147.779 54.1031) scale(132.477) rotate(135.063)">
<stop stop-color="#F2994A"/>
<stop offset="1" stop-color="#F2994A"/>
</linearGradient>
</defs>
</svg>
